# xmcd CD database file
#
# Track frame offsets:
#	150
#	4319
#	32291
#	68197
#	79675
#	108063
#	150415
#	168959
#
# Disc length: 2870 seconds
#
# Revision: 0
# Processed by: cddbd v1.5.2PL0 Copyright (c) Steve Scherf et al.
# Submitted via: CDex 1.70beta2
#
DISCID=4b0b3408
DTITLE=Cecil Taylor - Fly Fly Fly
DYEAR=1980
DGENRE=Jazz
TTITLE0=T (Beautiful Young'N)
TTITLE1=Astar
TTITLE2=Ensaslay!
TTITLE3=I (Sister Young'N)
TTITLE4=Corn In Sun and T (Moon)
TTITLE5=The Steel Stolen And Broken IS Reclaimed
TTITLE6=N and R (Love Is Friends)
TTITLE7=Rock Sub Amba
EXTD=YEAR: 1980
EXTT0=
EXTT1=
EXTT2=
EXTT3=
EXTT4=
EXTT5=
EXTT6=
EXTT7=
PLAYORDER=
